<svg width="75" height="75" viewBox="0 0 75 75" fill="none" xmlns="http://www.w3.org/2000/svg">
<path fill-rule="evenodd" clip-rule="evenodd" d="M22.3899 12.1895C21.5825 12.1895 20.9265 12.8438 20.9265 13.6493C20.9265 14.4555 21.5825 15.1092 22.3899 15.1092C23.1981 15.1092 23.8533 14.4555 23.8533 13.6493C23.8533 12.8438 23.1981 12.1895 22.3899 12.1895Z" fill="white"/>
<path fill-rule="evenodd" clip-rule="evenodd" d="M22.3899 53.9414C21.5825 53.9414 20.9265 54.5958 20.9265 55.4013C20.9265 56.2075 21.5825 56.8611 22.3899 56.8611C23.1981 56.8611 23.8533 56.2075 23.8533 55.4013C23.8533 54.5958 23.1981 53.9414 22.3899 53.9414Z" fill="white"/>
<path fill-rule="evenodd" clip-rule="evenodd" d="M10.6825 12.1895C9.87509 12.1895 9.21912 12.8438 9.21912 13.6493C9.21912 14.4555 9.87509 15.1092 10.6825 15.1092C11.4907 15.1092 12.1459 14.4555 12.1459 13.6493C12.1459 12.8438 11.4907 12.1895 10.6825 12.1895Z" fill="white"/>
<mask id="mask0" mask-type="alpha" maskUnits="userSpaceOnUse" x="0" y="0" width="34" height="75">
<path fill-rule="evenodd" clip-rule="evenodd" d="M0.0109863 0.072998H33.0734V74.8179H0.0109863V0.072998Z" fill="white"/>
</mask>
<g mask="url(#mask0)">
<path fill-rule="evenodd" clip-rule="evenodd" d="M10.6825 53.9414C9.87509 53.9414 9.21912 54.5958 9.21912 55.4013C9.21912 56.2075 9.87509 56.8611 10.6825 56.8611C11.4907 56.8611 12.1459 56.2075 12.1459 55.4013C12.1459 54.5958 11.4907 53.9414 10.6825 53.9414Z" fill="white"/>
<path fill-rule="evenodd" clip-rule="evenodd" d="M28.1385 4.99508C25.0032 1.86716 20.7743 0.072998 16.5362 0.072998C12.2989 0.072998 8.07018 1.86716 4.93409 4.99508C1.79854 8.12355 0 12.342 0 16.569C0 20.7967 1.79854 25.0153 4.93409 28.1431C8.07018 31.2717 12.2989 33.0659 16.5362 33.0659C20.7743 33.0659 25.0032 31.2717 28.1385 28.1431C31.2748 25.0153 33.0734 20.7967 33.0734 16.569C33.0734 12.342 31.2748 8.12355 28.1385 4.99508ZM16.5362 30.1462C9.28646 30.1462 2.92683 23.802 2.92683 16.569C2.92683 9.33687 9.28646 2.99271 16.5362 2.99271C23.7869 2.99271 30.1465 9.33687 30.1465 16.569C30.1465 23.802 23.7869 30.1462 16.5362 30.1462Z" fill="white"/>
<path fill-rule="evenodd" clip-rule="evenodd" d="M23.7805 21.7312C23.2095 21.1609 22.2827 21.1609 21.7112 21.7312C18.8579 24.576 14.2154 24.576 11.3614 21.7312C10.7905 21.1609 9.86375 21.1609 9.29211 21.7312C8.72119 22.3014 8.72119 23.226 9.29284 23.7956C11.29 25.7872 13.9132 26.783 16.5362 26.783C19.1601 26.783 21.7833 25.7872 23.7805 23.7956C24.3521 23.226 24.3521 22.3014 23.7805 21.7312Z" fill="white"/>
<path fill-rule="evenodd" clip-rule="evenodd" d="M28.1385 46.7468C25.0032 43.6191 20.7743 41.825 16.5362 41.825C12.2989 41.825 8.07018 43.6191 4.93409 46.7468C1.79854 49.8755 0 54.0939 0 58.3209C0 62.5487 1.79854 66.7671 4.93409 69.895C8.07018 73.0237 12.2989 74.8178 16.5362 74.8178C20.7743 74.8178 25.0032 73.0237 28.1385 69.895C31.2748 66.7671 33.0734 62.5487 33.0734 58.3209C33.0734 54.0939 31.2748 49.8755 28.1385 46.7468ZM16.5362 71.8981C9.28646 71.8981 2.92683 65.5532 2.92683 58.3209C2.92683 51.0886 9.28646 44.7447 16.5362 44.7447C23.7869 44.7447 30.1465 51.0886 30.1465 58.3209C30.1465 65.5532 23.7869 71.8981 16.5362 71.8981Z" fill="white"/>
</g>
<path fill-rule="evenodd" clip-rule="evenodd" d="M23.7805 62.6856C19.7861 58.7031 13.2872 58.7031 9.29284 62.6856C8.72119 63.2558 8.72119 64.1798 9.29211 64.75C9.86375 65.321 10.7905 65.321 11.3621 64.7507C14.2154 61.9058 18.8579 61.9058 21.7112 64.7507C21.9969 65.0358 22.3714 65.1783 22.7458 65.1783C23.1203 65.1783 23.4953 65.0358 23.7805 64.75C24.3521 64.1798 24.3521 63.2558 23.7805 62.6856Z" fill="white"/>
<path fill-rule="evenodd" clip-rule="evenodd" d="M70.5369 0.072998H46.6827C44.2619 0.072998 42.2925 2.0376 42.2925 4.45256V28.6863C42.2925 31.1013 44.2619 33.0659 46.6827 33.0659H70.5369C72.9571 33.0659 74.9272 31.1013 74.9272 28.6863V4.45256C74.9272 2.0376 72.9571 0.072998 70.5369 0.072998ZM72.0003 28.6863C72.0003 29.4911 71.3436 30.1462 70.5369 30.1462H46.6827C45.876 30.1462 45.2193 29.4911 45.2193 28.6863V4.45256C45.2193 3.64782 45.876 2.99271 46.6827 2.99271H70.5369C71.3436 2.99271 72.0003 3.64782 72.0003 4.45256V28.6863Z" fill="white"/>
<path fill-rule="evenodd" clip-rule="evenodd" d="M70.5369 41.825H46.6827C44.2619 41.825 42.2925 43.7894 42.2925 46.2045V70.4383C42.2925 72.8525 44.2619 74.8178 46.6827 74.8178H70.5369C72.9571 74.8178 74.9272 72.8525 74.9272 70.4383V46.2045C74.9272 43.7894 72.9571 41.825 70.5369 41.825ZM72.0003 70.4383C72.0003 71.243 71.3436 71.8981 70.5369 71.8981H46.6827C45.876 71.8981 45.2193 71.243 45.2193 70.4383V46.2045C45.2193 45.3998 45.876 44.7447 46.6827 44.7447H70.5369C71.3436 44.7447 72.0003 45.3998 72.0003 46.2045V70.4383Z" fill="white"/>
<path fill-rule="evenodd" clip-rule="evenodd" d="M66.7418 13.055C66.1701 12.4855 65.2441 12.4855 64.6725 13.0557L56.9266 20.7818L52.1076 15.9747C51.536 15.4052 50.61 15.4052 50.0384 15.9747C49.4667 16.5449 49.4667 17.4694 50.0384 18.0397L55.892 23.8791C56.1777 24.1643 56.5522 24.3068 56.9266 24.3068C57.3011 24.3068 57.6755 24.1643 57.9613 23.8791L66.7418 15.1199C67.3134 14.5497 67.3134 13.6252 66.7418 13.055Z" fill="white"/>
</svg>
