<svg width="75" height="75" viewBox="0 0 75 75" fill="none" xmlns="http://www.w3.org/2000/svg">
<path fill-rule="evenodd" clip-rule="evenodd" d="M49.8138 18C49.8351 17.9094 49.8701 17.7458 49.8701 17.6484V10.1683C49.8701 9.47885 49.3132 8.9217 48.6238 8.9217C47.9342 8.9217 47.3764 9.47885 47.3764 10.1683V15.775C44.6279 13.7903 41.2652 12.6618 37.627 12.6618H37.5183C34.7772 12.6618 32.1999 13.3163 29.9225 14.5056V8.9217C29.9225 8.23229 29.3638 7.67456 28.6751 7.67456C27.9873 7.67456 27.4288 8.23229 27.4288 8.9217V16.1106C23.4489 19.1909 20.8845 24.1631 20.9195 29.5726C20.9782 38.7475 28.4606 46.3243 37.6233 46.3243H37.732C46.9442 46.3243 54.391 38.5695 54.3308 29.3574C54.3035 24.9931 52.583 20.9616 49.8138 18ZM37.7153 43.8306H37.6233C29.8288 43.8306 23.4625 37.3899 23.4132 29.5841C23.3614 21.7477 29.6979 15.1555 37.5335 15.1555H37.6256C45.4208 15.1555 51.7862 21.5963 51.8365 29.4022C51.8873 37.2378 45.5525 43.8306 37.7153 43.8306Z" fill="white"/>
<path fill-rule="evenodd" clip-rule="evenodd" d="M28.6751 0.194214C27.9872 0.194214 27.4287 0.751357 27.4287 1.44077V3.93447C27.4287 4.62389 27.9872 5.18084 28.6751 5.18084C29.3637 5.18084 29.9224 4.62389 29.9224 3.93447V1.44077C29.9224 0.751357 29.3637 0.194214 28.6751 0.194214Z" fill="white"/>
<path fill-rule="evenodd" clip-rule="evenodd" d="M48.6238 1.4408C47.9342 1.4408 47.3765 1.99852 47.3765 2.68794V5.18086C47.3765 5.87028 47.9342 6.428 48.6238 6.428C49.3132 6.428 49.8702 5.87028 49.8702 5.18086V2.68794C49.8702 1.99852 49.3132 1.4408 48.6238 1.4408Z" fill="white"/>
<path fill-rule="evenodd" clip-rule="evenodd" d="M14.9612 28.8695C14.2726 28.8695 13.7139 29.4265 13.7139 30.1159V40.0905C13.7139 40.7799 14.2726 41.337 14.9612 41.337C15.6491 41.337 16.2076 40.7799 16.2076 40.0905V30.1159C16.2076 29.4265 15.6491 28.8695 14.9612 28.8695Z" fill="white"/>
<path fill-rule="evenodd" clip-rule="evenodd" d="M14.9612 21.3892C14.2726 21.3892 13.7139 21.9463 13.7139 22.6357V25.1292C13.7139 25.8188 14.2726 26.3758 14.9612 26.3758C15.6491 26.3758 16.2076 25.8188 16.2076 25.1292V22.6357C16.2076 21.9463 15.6491 21.3892 14.9612 21.3892Z" fill="white"/>
<path fill-rule="evenodd" clip-rule="evenodd" d="M62.3377 17.6484C61.6483 17.6484 61.0913 18.2062 61.0913 18.8956V28.8696C61.0913 29.559 61.6483 30.116 62.3377 30.116C63.0271 30.116 63.584 29.559 63.584 28.8696V18.8956C63.584 18.2062 63.0271 17.6484 62.3377 17.6484Z" fill="white"/>
<path fill-rule="evenodd" clip-rule="evenodd" d="M62.3377 10.1682C61.6483 10.1682 61.0913 10.7252 61.0913 11.4146V13.9083C61.0913 14.5977 61.6483 15.1554 62.3377 15.1554C63.0271 15.1554 63.584 14.5977 63.584 13.9083V11.4146C63.584 10.7252 63.0271 10.1682 62.3377 10.1682Z" fill="white"/>
<path fill-rule="evenodd" clip-rule="evenodd" d="M32.7181 35.8793C33.2456 36.3219 33.3143 37.1089 32.8717 37.6364C32.429 38.164 31.6427 38.2322 31.1152 37.7896C30.5882 37.3474 30.5189 36.5612 30.9615 36.0336C31.4042 35.5061 32.1912 35.4371 32.7181 35.8793Z" fill="white"/>
<path fill-rule="evenodd" clip-rule="evenodd" d="M43.9372 22.5088C44.4647 22.9514 44.5341 23.7377 44.0914 24.2652C43.6488 24.7927 42.8618 24.8617 42.3343 24.4191C41.8074 23.9769 41.7386 23.1899 42.1813 22.6624C42.6239 22.1349 43.4103 22.0666 43.9372 22.5088Z" fill="white"/>
<path fill-rule="evenodd" clip-rule="evenodd" d="M29.7181 31.3793C30.2456 31.8219 30.3143 32.6089 29.8717 33.1364C29.429 33.664 28.6427 33.7322 28.1152 33.2896C27.5882 32.8474 27.5189 32.0612 27.9615 31.5336C28.4042 31.0061 29.1912 30.9371 29.7181 31.3793Z" fill="white"/>
<path fill-rule="evenodd" clip-rule="evenodd" d="M40.9372 18.0088C41.4647 18.4514 41.5341 19.2377 41.0914 19.7652C40.6488 20.2927 39.8618 20.3617 39.3343 19.9191C38.8074 19.4769 38.7386 18.6899 39.1813 18.1624C39.6239 17.6349 40.4103 17.5666 40.9372 18.0088Z" fill="white"/>
<path fill-rule="evenodd" clip-rule="evenodd" d="M37.9681 39.6293C38.4956 40.0719 38.5643 40.8589 38.1217 41.3864C37.679 41.914 36.8927 41.9822 36.3652 41.5396C35.8382 41.0974 35.7689 40.3112 36.2115 39.7836C36.6542 39.2561 37.4412 39.1871 37.9681 39.6293Z" fill="white"/>
<path fill-rule="evenodd" clip-rule="evenodd" d="M49.1872 26.2588C49.7147 26.7014 49.7841 27.4877 49.3414 28.0152C48.8988 28.5427 48.1118 28.6117 47.5843 28.1691C47.0574 27.7269 46.9886 26.9399 47.4313 26.4124C47.8739 25.8849 48.6603 25.8166 49.1872 26.2588Z" fill="white"/>
<path fill-rule="evenodd" clip-rule="evenodd" d="M73.5588 48.8173H59.844C58.2208 48.8173 56.8496 49.8636 56.333 51.311H50.0924C49.4174 51.311 48.8756 51.8482 48.8527 52.5178L38.4512 50.1581C37.7008 49.9884 36.9216 50.0471 36.2042 50.3323L26.4425 54.2048C25.1817 54.7049 24.2577 55.72 23.8781 56.9467L4.81383 51.355C3.65182 51.0172 2.43273 51.2327 1.47019 51.9532C0.536494 52.6539 0 53.7164 0 54.8693V57.5736C0 58.8102 0.628636 59.9547 1.67942 60.6341L15.5297 69.5975C15.6514 69.6758 15.7876 69.7329 15.9298 69.7656L36.5511 74.4745C36.8303 74.5391 37.1172 74.5703 37.4026 74.5703C37.6895 74.5703 37.9749 74.5391 38.2541 74.4745L49.1069 71.9847C49.3329 72.2928 49.6806 72.506 50.0932 72.506H56.3345C56.8504 73.9532 58.2224 74.9995 59.8455 74.9995H73.5594C74.249 74.9995 74.8068 74.4417 74.8068 73.7523V50.0644C74.8052 49.375 74.2482 48.8173 73.5588 48.8173ZM48.5445 69.5564L37.6956 72.0449C37.5045 72.0897 37.3013 72.0897 37.1081 72.0449L16.7001 67.3839L3.03312 58.54C2.69532 58.3201 2.4937 57.9602 2.4937 57.5722V54.8685C2.4937 54.3745 2.78747 54.0817 2.96318 53.9508C3.2926 53.7049 3.7089 53.6274 4.11078 53.7484L23.9055 59.5619C24.486 61.2803 26.1481 62.5319 28.1022 62.5319H37.4026C38.0905 62.5319 38.649 61.9742 38.649 61.2848C38.649 60.5954 38.0905 60.0384 37.4026 60.0384H28.1022C27.0436 60.0384 26.1814 59.2197 26.1814 58.2182C26.1814 57.4777 26.6456 56.8127 27.3641 56.5273L37.1256 52.6526C37.373 52.5544 37.6422 52.533 37.9011 52.5916L48.6183 55.023L48.5445 69.5564ZM51.1165 70.0123H56.1039V53.8047H51.1165V70.0123ZM72.3115 72.506H59.844C59.1561 72.506 58.5976 71.9475 58.5976 71.2594V52.5581C58.5976 51.8695 59.1561 51.311 59.844 51.311H72.3115V72.506Z" fill="white"/>
<path fill-rule="evenodd" clip-rule="evenodd" d="M67.5479 67.5186H63.8078C63.1184 67.5186 62.5607 68.0763 62.5607 68.7657C62.5607 69.4553 63.1184 70.0123 63.8078 70.0123H67.5479C68.2373 70.0123 68.7944 69.4553 68.7944 68.7657C68.7944 68.0763 68.2373 67.5186 67.5479 67.5186Z" fill="white"/>
</svg>
